<!DOCTYPE svg PUBLIC "-//W3C//DTD SVG 1.1//EN" "http://www.w3.org/Graphics/SVG/1.1/DTD/svg11.dtd">
<svg xmlns="http://www.w3.org/2000/svg" xmlns:xlink="http://www.w3.org/1999/xlink" version="1.1"
    width="625px" height="1105px" viewBox="-0.5 -0.5 625 1105"
    style="background-color: rgb(255, 255, 255);">
    <defs>
        <linearGradient x1="0%" y1="0%" x2="0%" y2="100%" id="mx-gradient-f8cecc-1-ea6b66-1-s-0">
            <stop offset="0%" style="stop-color:#f8cecc"/>
            <stop offset="100%" style="stop-color:#ea6b66"/>
        </linearGradient>
        <linearGradient x1="0%" y1="0%" x2="0%" y2="100%" id="mx-gradient-d5e8d4-1-97d077-1-s-0">
            <stop offset="0%" style="stop-color:#d5e8d4"/>
            <stop offset="100%" style="stop-color:#97d077"/>
        </linearGradient>
    </defs>
    <g>
        <path d="M 232.33 16 L 232.33 53.76" fill="none" stroke="#000000" stroke-miterlimit="10"
            pointer-events="none"/>
        <path d="M 230 47.88 L 232.33 54.88 L 234.67 47.88" fill="none" stroke="#000000"
            stroke-miterlimit="10" pointer-events="none"/>
        <path d="M 328 56 L 344 72 L 328 88 L 312 72 Z" fill="#ffe0b0" stroke="#000000"
            stroke-miterlimit="10" pointer-events="none"/>
        <g transform="translate(317.5,68.5)">
                <text x="11" y="8" fill="#000000" text-anchor="middle" font-size="8px"
                    font-family="Helvetica" font-weight="bold">ZHP?</text>
        </g>
        <path d="M 40.33 344 L 40.33 373.76" fill="none" stroke="#000000" stroke-miterlimit="10"
            pointer-events="none"/>
        <path d="M 38 367.88 L 40.33 374.88 L 42.67 367.88" fill="none" stroke="#000000"
            stroke-miterlimit="10" pointer-events="none"/>
        <ellipse cx="40" cy="584" rx="8" ry="8" fill="url(#mx-gradient-f8cecc-1-ea6b66-1-s-0)"
            stroke="#000000" pointer-events="none"/>
        <g transform="translate(37.5,580.5)">
                <text x="3" y="8" fill="#000000" text-anchor="middle" font-size="8px"
                    font-family="Helvetica" font-weight="bold">4</text>
        </g>
        <path d="M 120.33 584 L 50.57 584" fill="none" stroke="#000000" stroke-miterlimit="10"
            pointer-events="none"/>
        <path d="M 56.45 581.67 L 49.45 584 L 56.45 586.33" fill="none" stroke="#000000"
            stroke-miterlimit="10" pointer-events="none"/>
        <g transform="translate(108.5,573.5)">
                <text x="5" y="7" fill="#000000" text-anchor="middle" font-size="7px"
                    font-family="Helvetica">NE</text>
        </g>
        <ellipse cx="232" cy="8" rx="8" ry="8" fill="url(#mx-gradient-d5e8d4-1-97d077-1-s-0)"
            stroke="#000000" pointer-events="none"/>
        <path d="M 232 56 L 248 72 L 232 88 L 216 72 Z" fill="#ffe0b0" stroke="#36393d"
            stroke-miterlimit="10" pointer-events="none"/>
        <g transform="translate(226.5,68.5)">
                <text x="6" y="8" fill="#000000" text-anchor="middle" font-size="8px"
                    font-family="Helvetica" font-weight="bold">TŘ</text>
        </g>
        <path d="M 136.33 408 L 136.33 437.76" fill="none" stroke="#000000" stroke-miterlimit="10"
            pointer-events="none"/>
        <path d="M 134 431.88 L 136.33 438.88 L 138.67 431.88" fill="none" stroke="#000000"
            stroke-miterlimit="10" pointer-events="none"/>
        <rect x="0" y="312" width="80" height="32" rx="4.8" ry="4.8" fill="#ffffc0" stroke="#000000"
            pointer-events="none"/>
        <g transform="translate(8.5,314.5)">
                <text x="32" y="17" fill="#000000" text-anchor="middle" font-size="8px"
                    font-family="Helvetica" font-weight="bold"
                    >
                    <tspan x="32" y="7">NIMS</tspan>
                    <tspan x="32" y="17">WO_changePort</tspan>
                    <tspan x="32" y="27">P1</tspan>
                </text>
        </g>
        <path d="M 120.33 264 L 50 264 Q 40 264 40.07 274 L 40.32 309.76" fill="none"
            stroke="#000000" stroke-miterlimit="10" pointer-events="none"/>
        <path d="M 37.94 303.9 L 40.33 310.88 L 42.61 303.87" fill="none" stroke="#000000"
            stroke-miterlimit="10" pointer-events="none"/>
        <g transform="translate(103.5,253.5)">
                <text x="8" y="7" fill="#000000" text-anchor="middle" font-size="7px"
                    font-family="Verdana">ANO</text>
        </g>
        <path d="M 344.33 72 L 414.1 72" fill="none" stroke="#000000" stroke-miterlimit="10"
            pointer-events="none"/>
        <path d="M 408.22 74.33 L 415.22 72 L 408.22 69.67" fill="none" stroke="#000000"
            stroke-miterlimit="10" pointer-events="none"/>
        <g transform="translate(344.5,60.5)">
                <text x="8" y="7" fill="#000000" text-anchor="middle" font-size="7px"
                    font-family="Verdana">ANO</text>
        </g>
        <rect x="96" y="504" width="80" height="32" rx="4.8" ry="4.8" fill="#ffffc0"
            stroke="#000000" pointer-events="none"/>
        <g transform="translate(104.5,506.5)">
                <text x="32" y="17" fill="#000000" text-anchor="middle" font-size="8px"
                    font-family="Helvetica" font-weight="bold"
                    >
                    <tspan x="32" y="7">NIMS</tspan>
                    <tspan x="32" y="17">InsertNewObject</tspan>
                    <tspan x="32" y="27">LSADSL1</tspan>
                </text>
        </g>
        <path d="M 136 568 L 152 584 L 136 600 L 120 584 Z" fill="#ffe0b0" stroke="#000000"
            stroke-miterlimit="10" pointer-events="none"/>
        <g transform="translate(127.5,580.5)">
                <text x="9" y="8" fill="#000000" text-anchor="middle" font-size="8px"
                    font-family="Helvetica" font-weight="bold">OK?</text>
        </g>
        <path d="M 136.33 536 L 136.33 565.76" fill="none" stroke="#000000" stroke-miterlimit="10"
            pointer-events="none"/>
        <path d="M 134 559.88 L 136.33 566.88 L 138.67 559.88" fill="none" stroke="#000000"
            stroke-miterlimit="10" pointer-events="none"/>
        <path d="M 152.33 584 L 214.1 584" fill="none" stroke="#000000" stroke-miterlimit="10"
            pointer-events="none"/>
        <path d="M 208.22 586.33 L 215.22 584 L 208.22 581.67" fill="none" stroke="#000000"
            stroke-miterlimit="10" pointer-events="none"/>
        <g transform="translate(152.5,573.5)">
                <text x="8" y="7" fill="#000000" text-anchor="middle" font-size="7px"
                    font-family="Helvetica">ANO</text>
        </g>
        <path d="M 520 696 L 536 712 L 520 728 L 504 712 Z" fill="#ffe0b0" stroke="#000000"
            stroke-miterlimit="10" pointer-events="none"/>
        <g transform="translate(511.5,708.5)">
                <text x="9" y="8" fill="#000000" text-anchor="middle" font-size="8px"
                    font-family="Helvetica" font-weight="bold">OK?</text>
        </g>
        <ellipse cx="424" cy="72" rx="8" ry="8" fill="url(#mx-gradient-f8cecc-1-ea6b66-1-s-0)"
            stroke="#000000" pointer-events="none"/>
        <g transform="translate(421.5,68.5)">
                <text x="3" y="8" fill="#000000" text-anchor="middle" font-size="8px"
                    font-family="Helvetica" font-weight="bold">1</text>
        </g>
        <path d="M 520.33 664 L 520.33 693.76" fill="none" stroke="#000000" stroke-miterlimit="10"
            pointer-events="none"/>
        <path d="M 518 687.88 L 520.33 694.88 L 522.67 687.88" fill="none" stroke="#000000"
            stroke-miterlimit="10" pointer-events="none"/>
        <ellipse cx="616" cy="712" rx="8" ry="8" fill="url(#mx-gradient-f8cecc-1-ea6b66-1-s-0)"
            stroke="#000000" pointer-events="none"/>
        <g transform="translate(613.5,708.5)">
                <text x="3" y="8" fill="#000000" text-anchor="middle" font-size="8px"
                    font-family="Helvetica" font-weight="bold">5</text>
        </g>
        <path d="M 536.33 712 L 606.1 712" fill="none" stroke="#000000" stroke-miterlimit="10"
            pointer-events="none"/>
        <path d="M 600.22 714.33 L 607.22 712 L 600.22 709.67" fill="none" stroke="#000000"
            stroke-miterlimit="10" pointer-events="none"/>
        <g transform="translate(538.5,700.5)">
                <text x="5" y="7" fill="#000000" text-anchor="middle" font-size="7px"
                    font-family="Helvetica">NE</text>
        </g>
        <path d="M 504.33 712 L 442.57 712" fill="none" stroke="#000000" stroke-miterlimit="10"
            pointer-events="none"/>
        <path d="M 448.45 709.67 L 441.45 712 L 448.45 714.33" fill="none" stroke="#000000"
            stroke-miterlimit="10" pointer-events="none"/>
        <g transform="translate(487.5,700.5)">
                <text x="8" y="7" fill="#000000" text-anchor="middle" font-size="7px"
                    font-family="Helvetica">ANO</text>
        </g>
        <rect x="480" y="824" width="80" height="32" rx="4.8" ry="4.8" fill="#ffffc0"
            stroke="#000000" pointer-events="none"/>
        <g transform="translate(488.5,826.5)">
                <text x="32" y="17" fill="#000000" text-anchor="middle" font-size="8px"
                    font-family="Helvetica" font-weight="bold"
                    >
                    <tspan x="32" y="7">NIMS</tspan>
                    <tspan x="32" y="17">InsertNewObject</tspan>
                    <tspan x="32" y="27">LSADSL2</tspan>
                </text>
        </g>
        <path d="M 520 888 L 536 904 L 520 920 L 504 904 Z" fill="#ffe0b0" stroke="#000000"
            stroke-miterlimit="10" pointer-events="none"/>
        <g transform="translate(511.5,900.5)">
                <text x="9" y="8" fill="#000000" text-anchor="middle" font-size="8px"
                    font-family="Helvetica" font-weight="bold">OK?</text>
        </g>
        <path d="M 520.33 856 L 520.33 885.76" fill="none" stroke="#000000" stroke-miterlimit="10"
            pointer-events="none"/>
        <path d="M 518 879.88 L 520.33 886.88 L 522.67 879.88" fill="none" stroke="#000000"
            stroke-miterlimit="10" pointer-events="none"/>
        <ellipse cx="616" cy="904" rx="8" ry="8" fill="url(#mx-gradient-f8cecc-1-ea6b66-1-s-0)"
            stroke="#000000" pointer-events="none"/>
        <g transform="translate(613.5,900.5)">
                <text x="3" y="8" fill="#000000" text-anchor="middle" font-size="8px"
                    font-family="Helvetica" font-weight="bold">6</text>
        </g>
        <path d="M 536.33 904 L 606.1 904" fill="none" stroke="#000000" stroke-miterlimit="10"
            pointer-events="none"/>
        <path d="M 600.22 906.33 L 607.22 904 L 600.22 901.67" fill="none" stroke="#000000"
            stroke-miterlimit="10" pointer-events="none"/>
        <g transform="translate(534.5,892.5)">
                <text x="5" y="7" fill="#000000" text-anchor="middle" font-size="7px"
                    font-family="Helvetica">NE</text>
        </g>
        <path d="M 504.33 904 L 442.57 904" fill="none" stroke="#000000" stroke-miterlimit="10"
            pointer-events="none"/>
        <path d="M 448.45 901.67 L 441.45 904 L 448.45 906.33" fill="none" stroke="#000000"
            stroke-miterlimit="10" pointer-events="none"/>
        <g transform="translate(486.5,892.5)">
                <text x="8" y="7" fill="#000000" text-anchor="middle" font-size="7px"
                    font-family="Helvetica">ANO</text>
        </g>
        <ellipse cx="424" cy="1096" rx="4.8" ry="4.8" fill="url(#mx-gradient-d5e8d4-1-97d077-1-s-0)"
            stroke="#000000" pointer-events="none"/>
        <ellipse cx="424" cy="1096" rx="8" ry="8" fill="none" stroke="#000000" pointer-events="none"/>
        <path d="M 248.33 72 L 310.1 72" fill="none" stroke="#000000" stroke-miterlimit="10"
            pointer-events="none"/>
        <path d="M 304.22 74.33 L 311.22 72 L 304.22 69.67" fill="none" stroke="#000000"
            stroke-miterlimit="10" pointer-events="none"/>
        <g transform="translate(250.5,60.5)">
                <text x="18" y="7" fill="#000000" text-anchor="middle" font-size="7px"
                    font-family="Verdana">BM1, DM1</text>
        </g>
        <path d="M 232 248 L 248 264 L 232 280 L 216 264 Z" fill="#ffe0b0" stroke="#36393d"
            stroke-miterlimit="10" pointer-events="none"/>
        <path d="M 232.33 152 L 232.33 245.76" fill="none" stroke="#000000" stroke-miterlimit="10"
            pointer-events="none"/>
        <path d="M 230 239.88 L 232.33 246.88 L 234.67 239.88" fill="none" stroke="#000000"
            stroke-miterlimit="10" pointer-events="none"/>
        <path d="M 328.33 88 L 328.33 117.76" fill="none" stroke="#000000" stroke-miterlimit="10"
            pointer-events="none"/>
        <path d="M 326 111.88 L 328.33 118.88 L 330.67 111.88" fill="none" stroke="#000000"
            stroke-miterlimit="10" pointer-events="none"/>
        <g transform="translate(330.5,87.5)">
                <text x="5" y="7" fill="#000000" text-anchor="middle" font-size="7px"
                    font-family="Verdana">NE</text>
        </g>
        <path d="M 40 376 L 56 392 L 40 408 L 24 392 Z" fill="#ffe0b0" stroke="#000000"
            stroke-miterlimit="10" pointer-events="none"/>
        <g transform="translate(31.5,388.5)">
                <text x="9" y="8" fill="#000000" text-anchor="middle" font-size="8px"
                    font-family="Helvetica" font-weight="bold">OK?</text>
        </g>
        <path d="M 56.33 392 L 118.1 392" fill="none" stroke="#000000" stroke-miterlimit="10"
            pointer-events="none"/>
        <path d="M 112.22 394.33 L 119.22 392 L 112.22 389.67" fill="none" stroke="#000000"
            stroke-miterlimit="10" pointer-events="none"/>
        <g transform="translate(56.5,380.5)">
                <text x="8" y="7" fill="#000000" text-anchor="middle" font-size="7px"
                    font-family="Verdana">ANO</text>
        </g>
        <path d="M 136 440 L 152 456 L 136 472 L 120 456 Z" fill="#ffe0b0" stroke="#000000"
            stroke-miterlimit="10" pointer-events="none"/>
        <g transform="translate(126.5,452.5)">
                <text x="10" y="7" fill="#000000" text-anchor="middle" font-size="7px"
                    font-family="Helvetica" font-weight="bold">Rel1?</text>
        </g>
        <ellipse cx="40" cy="456" rx="8" ry="8" fill="url(#mx-gradient-f8cecc-1-ea6b66-1-s-0)"
            stroke="#000000" pointer-events="none"/>
        <g transform="translate(37.5,452.5)">
                <text x="3" y="8" fill="#000000" text-anchor="middle" font-size="8px"
                    font-family="Helvetica" font-weight="bold">3</text>
        </g>
        <path d="M 40.33 408 L 40.02 445.76" fill="none" stroke="#000000" stroke-miterlimit="10"
            pointer-events="none"/>
        <path d="M 37.73 439.86 L 40.01 446.88 L 42.4 439.9" fill="none" stroke="#000000"
            stroke-miterlimit="10" pointer-events="none"/>
        <g transform="translate(43.5,408.5)">
                <text x="5" y="7" fill="#000000" text-anchor="middle" font-size="7px"
                    font-family="Verdana">NE</text>
        </g>
        <path d="M 232 568 L 248 584 L 232 600 L 216 584 Z" fill="#ffe0b0" stroke="#000000"
            stroke-miterlimit="10" pointer-events="none"/>
        <path d="M 248 584 L 310.1 584" fill="none" stroke="#000000" stroke-miterlimit="10"
            pointer-events="none"/>
        <path d="M 304.22 586.33 L 311.22 584 L 304.22 581.67" fill="none" stroke="#000000"
            stroke-miterlimit="10" pointer-events="none"/>
        <path d="M 440.33 584 L 510 584 Q 520 584 520.07 594 L 520.32 629.76" fill="none"
            stroke="#000000" stroke-miterlimit="10" pointer-events="none"/>
        <path d="M 517.94 623.9 L 520.33 630.88 L 522.61 623.87" fill="none" stroke="#000000"
            stroke-miterlimit="10" pointer-events="none"/>
        <g transform="translate(440.5,572.5)">
                <text x="8" y="7" fill="#000000" text-anchor="middle" font-size="7px"
                    font-family="Verdana">ANO</text>
        </g>
        <path d="M 152.33 456 L 222 456 Q 232 456 232.03 466 L 232.33 565.76" fill="none"
            stroke="#000000" stroke-miterlimit="10" pointer-events="none"/>
        <path d="M 229.98 559.89 L 232.33 566.88 L 234.64 559.88" fill="none" stroke="#000000"
            stroke-miterlimit="10" pointer-events="none"/>
        <g transform="translate(154.5,445.5)">
                <text x="3" y="7" fill="#000000" text-anchor="middle" font-size="7px"
                    font-family="Verdana">=</text>
        </g>
        <path d="M 136 376 L 152 392 L 136 408 L 120 392 Z" fill="#ffe0b0" stroke="#000000"
            stroke-miterlimit="10" pointer-events="none"/>
        <path d="M 136.33 280 L 136.33 373.76" fill="none" stroke="#000000" stroke-miterlimit="10"
            pointer-events="none"/>
        <path d="M 134 367.88 L 136.33 374.88 L 138.67 367.88" fill="none" stroke="#000000"
            stroke-miterlimit="10" pointer-events="none"/>
        <g transform="translate(139.5,279.5)">
                <text x="5" y="7" fill="#000000" text-anchor="middle" font-size="7px"
                    font-family="Verdana">NE</text>
        </g>
        <path d="M 136.33 472 L 136.33 501.76" fill="none" stroke="#000000" stroke-miterlimit="10"
            pointer-events="none"/>
        <path d="M 134 495.88 L 136.33 502.88 L 138.67 495.88" fill="none" stroke="#000000"
            stroke-miterlimit="10" pointer-events="none"/>
        <g transform="translate(139.5,470.5)">
                <text x="6" y="7" fill="#000000" text-anchor="middle" font-size="7px"
                    font-family="Verdana">&lt;&gt;</text>
        </g>
        <path d="M 136 248 L 152 264 L 136 280 L 120 264 Z" fill="#ffe0b0" stroke="#36393d"
            stroke-miterlimit="10" pointer-events="none"/>
        <g transform="translate(124.5,260.5)">
                <text x="12" y="7" fill="#000000" text-anchor="middle" font-size="7px"
                    font-family="Helvetica" font-weight="bold">ZDP1?</text>
        </g>
        <path d="M 216.33 264 L 154.57 264" fill="none" stroke="#000000" stroke-miterlimit="10"
            pointer-events="none"/>
        <path d="M 160.45 261.67 L 153.45 264 L 160.45 266.33" fill="none" stroke="#000000"
            stroke-miterlimit="10" pointer-events="none"/>
        <path d="M 328 568 L 344 584 L 328 600 L 312 584 Z" fill="#ffe0b0" stroke="#000000"
            stroke-miterlimit="10" pointer-events="none"/>
        <g transform="translate(322.5,580.5)">
                <text x="6" y="8" fill="#000000" text-anchor="middle" font-size="8px"
                    font-family="Helvetica" font-weight="bold">TŘ</text>
        </g>
        <path d="M 424 696 L 440 712 L 424 728 L 408 712 Z" fill="#ffe0b0" stroke="#000000"
            stroke-miterlimit="10" pointer-events="none"/>
        <path d="M 424 568 L 440 584 L 424 600 L 408 584 Z" fill="#ffe0b0" stroke="#36393d"
            stroke-miterlimit="10" pointer-events="none"/>
        <g transform="translate(412.5,580.5)">
                <text x="12" y="7" fill="#000000" text-anchor="middle" font-size="7px"
                    font-family="Helvetica" font-weight="bold">ZDP2?</text>
        </g>
        <path d="M 344.33 584 L 406.1 584" fill="none" stroke="#000000" stroke-miterlimit="10"
            pointer-events="none"/>
        <path d="M 400.22 586.33 L 407.22 584 L 400.22 581.67" fill="none" stroke="#000000"
            stroke-miterlimit="10" pointer-events="none"/>
        <g transform="translate(342.5,572.5)">
                <text x="25" y="7" fill="#000000" text-anchor="middle" font-size="7px"
                    font-family="Verdana">DB1,DX1,DM1</text>
        </g>
        <path d="M 328.33 600 L 328.01 894 Q 328 904 338 904 L 406.1 904" fill="none"
            stroke="#000000" stroke-miterlimit="10" pointer-events="none"/>
        <path d="M 400.22 906.33 L 407.22 904 L 400.22 901.67" fill="none" stroke="#000000"
            stroke-miterlimit="10" pointer-events="none"/>
        <g transform="translate(332.5,604.5)">
                <text x="7" y="7" fill="#000000" text-anchor="middle" font-size="7px"
                    font-family="Verdana">Else</text>
        </g>
        <rect x="480" y="632" width="80" height="32" rx="4.8" ry="4.8" fill="#ffffc0"
            stroke="#000000" pointer-events="none"/>
        <g transform="translate(488.5,634.5)">
                <text x="32" y="17" fill="#000000" text-anchor="middle" font-size="8px"
                    font-family="Helvetica" font-weight="bold"
                    >
                    <tspan x="32" y="7">NIMS</tspan>
                    <tspan x="32" y="17">WO_changePort</tspan>
                    <tspan x="32" y="27">P2</tspan>
                </text>
        </g>
        <path d="M 424.33 600 L 424.33 693.76" fill="none" stroke="#000000" stroke-miterlimit="10"
            pointer-events="none"/>
        <path d="M 422 687.88 L 424.33 694.88 L 426.67 687.88" fill="none" stroke="#000000"
            stroke-miterlimit="10" pointer-events="none"/>
        <g transform="translate(426.5,600.5)">
                <text x="5" y="7" fill="#000000" text-anchor="middle" font-size="7px"
                    font-family="Verdana">NE</text>
        </g>
        <path d="M 424.33 728 L 424.33 757.76" fill="none" stroke="#000000" stroke-miterlimit="10"
            pointer-events="none"/>
        <path d="M 422 751.88 L 424.33 758.88 L 426.67 751.88" fill="none" stroke="#000000"
            stroke-miterlimit="10" pointer-events="none"/>
        <path d="M 424 760 L 440 776 L 424 792 L 408 776 Z" fill="#ffe0b0" stroke="#000000"
            stroke-miterlimit="10" pointer-events="none"/>
        <g transform="translate(414.5,772.5)">
                <text x="10" y="7" fill="#000000" text-anchor="middle" font-size="7px"
                    font-family="Helvetica" font-weight="bold">Rel2?</text>
        </g>
        <path d="M 440.33 776 L 510 776 Q 520 776 520.07 786 L 520.32 821.76" fill="none"
            stroke="#000000" stroke-miterlimit="10" pointer-events="none"/>
        <path d="M 517.94 815.9 L 520.33 822.88 L 522.61 815.87" fill="none" stroke="#000000"
            stroke-miterlimit="10" pointer-events="none"/>
        <g transform="translate(442.5,764.5)">
                <text x="6" y="7" fill="#000000" text-anchor="middle" font-size="7px"
                    font-family="Verdana">&lt;&gt;</text>
        </g>
        <path d="M 424 888 L 440 904 L 424 920 L 408 904 Z" fill="#ffe0b0" stroke="#36393d"
            stroke-miterlimit="10" pointer-events="none"/>
        <path d="M 424.33 792 L 424.33 885.76" fill="none" stroke="#000000" stroke-miterlimit="10"
            pointer-events="none"/>
        <path d="M 422 879.88 L 424.33 886.88 L 426.67 879.88" fill="none" stroke="#000000"
            stroke-miterlimit="10" pointer-events="none"/>
        <g transform="translate(428.5,791.5)">
                <text x="3" y="7" fill="#000000" text-anchor="middle" font-size="7px"
                    font-family="Verdana">=</text>
        </g>
        <path d="M 424.33 920 L 424.33 949.76" fill="none" stroke="#000000" stroke-miterlimit="10"
            pointer-events="none"/>
        <path d="M 422 943.88 L 424.33 950.88 L 426.67 943.88" fill="none" stroke="#000000"
            stroke-miterlimit="10" pointer-events="none"/>
        <path d="M 328 120 L 344 136 L 328 152 L 312 136 Z" fill="#ffe0b0" stroke="#36393d"
            stroke-miterlimit="10" pointer-events="none"/>
        <g transform="translate(317.5,132.5)">
                <text x="10" y="7" fill="#000000" text-anchor="middle" font-size="7px"
                    font-family="Helvetica" font-weight="bold">RelH?</text>
        </g>
        <path d="M 232 120 L 248 136 L 232 152 L 216 136 Z" fill="#ffe0b0" stroke="#36393d"
            stroke-miterlimit="10" pointer-events="none"/>
        <path d="M 232.33 88 L 232.33 117.76" fill="none" stroke="#000000" stroke-miterlimit="10"
            pointer-events="none"/>
        <path d="M 230 111.88 L 232.33 118.88 L 234.67 111.88" fill="none" stroke="#000000"
            stroke-miterlimit="10" pointer-events="none"/>
        <g transform="translate(234.5,88.5)">
                <text x="7" y="7" fill="#000000" text-anchor="middle" font-size="7px"
                    font-family="Verdana">Else</text>
        </g>
        <path d="M 312.33 136 L 250.57 136" fill="none" stroke="#000000" stroke-miterlimit="10"
            pointer-events="none"/>
        <path d="M 256.45 133.67 L 249.45 136 L 256.45 138.33" fill="none" stroke="#000000"
            stroke-miterlimit="10" pointer-events="none"/>
        <g transform="translate(305.5,124.5)">
                <text x="3" y="7" fill="#000000" text-anchor="middle" font-size="7px"
                    font-family="Verdana">=</text>
        </g>
        <rect x="288" y="184" width="80" height="32" rx="4.8" ry="4.8" fill="#ffffc0"
            stroke="#000000" pointer-events="none"/>
        <g transform="translate(296.5,186.5)">
                <text x="32" y="17" fill="#000000" text-anchor="middle" font-size="8px"
                    font-family="Helvetica" font-weight="bold">
                    <tspan x="32" y="7">NIMS</tspan>
                    <tspan x="32" y="17">InsertNewObject</tspan>
                    <tspan x="32" y="27">PSTN/ISDNBXA</tspan>
                </text>
        </g>
        <path d="M 328.33 152 L 328.33 181.76" fill="none" stroke="#000000" stroke-miterlimit="10"
            pointer-events="none"/>
        <path d="M 326 175.88 L 328.33 182.88 L 330.67 175.88" fill="none" stroke="#000000"
            stroke-miterlimit="10" pointer-events="none"/>
        <g transform="translate(331.5,152.5)">
                <text x="6" y="7" fill="#000000" text-anchor="middle" font-size="7px"
                    font-family="Verdana">&lt;&gt;</text>
        </g>
        <path d="M 328 248 L 344 264 L 328 280 L 312 264 Z" fill="#ffe0b0" stroke="#36393d"
            stroke-miterlimit="10" pointer-events="none"/>
        <g transform="translate(319.5,260.5)">
                <text x="9" y="8" fill="#000000" text-anchor="middle" font-size="8px"
                    font-family="Helvetica" font-weight="bold">OK?</text>
        </g>
        <path d="M 344.33 264 L 414.1 264" fill="none" stroke="#000000" stroke-miterlimit="10"
            pointer-events="none"/>
        <path d="M 408.22 266.33 L 415.22 264 L 408.22 261.67" fill="none" stroke="#000000"
            stroke-miterlimit="10" pointer-events="none"/>
        <g transform="translate(343.5,252.5)">
                <text x="5" y="7" fill="#000000" text-anchor="middle" font-size="7px"
                    font-family="Verdana">NE</text>
        </g>
        <ellipse cx="424" cy="264" rx="8" ry="8" fill="url(#mx-gradient-f8cecc-1-ea6b66-1-s-0)"
            stroke="#000000" pointer-events="none"/>
        <g transform="translate(421.5,260.5)">
                <text x="3" y="8" fill="#000000" text-anchor="middle" font-size="8px"
                    font-family="Helvetica" font-weight="bold">2</text>
        </g>
        <path d="M 328.33 216 L 328.33 245.76" fill="none" stroke="#000000" stroke-miterlimit="10"
            pointer-events="none"/>
        <path d="M 326 239.88 L 328.33 246.88 L 330.67 239.88" fill="none" stroke="#000000"
            stroke-miterlimit="10" pointer-events="none"/>
        <path d="M 312.33 264 L 250.57 264" fill="none" stroke="#000000" stroke-miterlimit="10"
            pointer-events="none"/>
        <path d="M 256.45 261.67 L 249.45 264 L 256.45 266.33" fill="none" stroke="#000000"
            stroke-miterlimit="10" pointer-events="none"/>
        <g transform="translate(297.5,252.5)">
                <text x="8" y="7" fill="#000000" text-anchor="middle" font-size="7px"
                    font-family="Verdana">ANO</text>
        </g>
        <rect x="384" y="952" width="80" height="32" rx="4.8" ry="4.8" fill="#ffffc0"
            stroke="#000000" pointer-events="none"/>
        <g transform="translate(384.5,954.5)">
                <text x="39" y="17" fill="#000000" text-anchor="middle" font-size="8px"
                    font-family="Helvetica" font-weight="bold"
                    >
                    <tspan x="39" y="7">NIMS</tspan>
                    <tspan x="39" y="17">tclGeneralCommand</tspan>
                    <tspan x="39" y="27">CHANGE_CPE</tspan>
                </text>
        </g>
        <path d="M 424 1016 L 440 1032 L 424 1048 L 408 1032 Z" fill="#ffe0b0" stroke="#000000"
            stroke-miterlimit="10" pointer-events="none"/>
        <g transform="translate(415.5,1028.5)">
                <text x="9" y="8" fill="#000000" text-anchor="middle" font-size="8px"
                    font-family="Helvetica" font-weight="bold">OK?</text>
        </g>
        <path d="M 424.33 984 L 424.33 1013.76" fill="none" stroke="#000000" stroke-miterlimit="10"
            pointer-events="none"/>
        <path d="M 422 1007.88 L 424.33 1014.88 L 426.67 1007.88" fill="none" stroke="#000000"
            stroke-miterlimit="10" pointer-events="none"/>
        <ellipse cx="328" cy="1032" rx="8" ry="8" fill="url(#mx-gradient-f8cecc-1-ea6b66-1-s-0)"
            stroke="#000000" pointer-events="none"/>
        <g transform="translate(325.5,1028.5)">
                <text x="3" y="8" fill="#000000" text-anchor="middle" font-size="8px"
                    font-family="Helvetica" font-weight="bold">7</text>
        </g>
        <path d="M 424.33 1048 L 424.33 1085.76" fill="none" stroke="#000000" stroke-miterlimit="10"
            pointer-events="none"/>
        <path d="M 422 1079.88 L 424.33 1086.88 L 426.67 1079.88" fill="none" stroke="#000000"
            stroke-miterlimit="10" pointer-events="none"/>
        <g transform="translate(428.5,1048.5)">
                <text x="8" y="7" fill="#000000" text-anchor="middle" font-size="7px"
                    font-family="Helvetica">ANO</text>
        </g>
        <path d="M 408.33 1032 L 338.57 1032" fill="none" stroke="#000000" stroke-miterlimit="10"
            pointer-events="none"/>
        <path d="M 344.45 1029.67 L 337.45 1032 L 344.45 1034.33" fill="none" stroke="#000000"
            stroke-miterlimit="10" pointer-events="none"/>
        <g transform="translate(396.5,1021.5)">
                <text x="5" y="7" fill="#000000" text-anchor="middle" font-size="7px"
                    font-family="Helvetica">NE</text>
        </g>
    </g>
</svg>
